<?xml version="1.0" encoding="UTF-8" standalone="no"?><!DOCTYPE svg PUBLIC "-//W3C//DTD SVG 1.1//EN" "http://www.w3.org/Graphics/SVG/1.1/DTD/svg11.dtd"><svg width="100%" height="100%" viewBox="0 0 200 200" version="1.1" xmlns="http://www.w3.org/2000/svg" xmlns:xlink="http://www.w3.org/1999/xlink" xml:space="preserve" xmlns:serif="http://www.serif.com/" style="fill-rule:evenodd;clip-rule:evenodd;stroke-linejoin:round;stroke-miterlimit:2;"><g><g><g><path d="M48.371,20.799c2.208,3.732 4.435,4.533 5.328,5.205c-2.535,1.268 -4.165,1.449 -4.165,1.449c-19.781,-7.288 -33.044,-8.103 -45.628,-7.922c-3.123,0 -1.675,-2.489 0.045,-2.716c16.477,-1.448 29.075,0.77 44.42,3.984l-0,-0Z" style="fill-rule:nonzero;"/><path d="M75.445,31.978c6.519,7.605 15.481,8.873 15.481,8.873c0,-0 4.266,0.752 7.243,4.255c3.026,3.561 2.988,8.057 2.988,8.057c-0,0 0.362,3.712 -3.169,6.519c2.082,-0.634 7.061,-2.535 15.436,-0.905c-0.815,-2.762 -4.074,-5.795 -6.066,-7.379c-1.992,-1.584 -5.598,-5.936 -8.782,-13.172c-1.991,-4.527 -1.556,-8.378 -2.851,-11.362c-2.63,-6.058 -7.243,-10.184 -13.49,-11.633c-1.597,-0.371 -10.049,-2.626 -18.015,1.222c-7.967,3.848 -7.695,3.485 -14.712,4.391c0.815,1.584 3.093,3.405 4.632,4.22c-0,-0 5.598,-0.418 12.298,1.212c-0,-0 0.11,-5.359 5.794,-5.794c3.976,-0.305 7.508,2.665 7.876,5.341c0.199,1.445 0.181,5.341 -4.662,6.156l-0.001,-0.001Z" style="fill-rule:nonzero;"/><path d="M50.832,28.222c0,-0 2.785,-0.791 4.115,-1.877c0,0 8.741,0.021 12.905,2.012c0,0 -1.135,-4.519 2.667,-5.968c3.802,-1.448 8.357,0.954 8.086,4.756c-0.272,3.802 -5.049,4.291 -5.049,4.291c-0,-0 2.625,4.254 7.967,7.288c5.341,3.032 9.234,3.394 9.234,3.394c0,0 5.185,0.934 7.63,5.732c2.444,4.798 0.96,9.023 -0.126,9.748c-1.086,0.724 -6.915,7.697 -9.722,12.404c-2.807,4.708 -4.074,6.79 -5.16,11.769c-1.087,4.979 4.617,7.424 5.25,7.65c0.634,0.227 3.712,0.557 5.16,1.1c1.449,0.544 4.157,1.291 7.995,7.048c2.253,3.38 3.447,6.108 4.962,10.474c1.312,3.779 0.997,6.827 0.997,6.827c0,0 -2.704,4.176 -3.561,12.506c-0,0 -1.776,-9.754 -5.134,-11.882c-6.427,-4.074 -13.384,-9.88 -15.76,-13.307c-2.354,-3.395 -5.21,-7.391 -7.107,-12.016c-1.529,-3.728 -3.245,-12.264 -2.796,-16.336c0,-0 0.167,-2.281 0.504,-3.233c0.336,-0.952 0.508,-2.498 1.355,-5.043c0.561,-1.686 -0.059,-5.152 -1.145,-7.235c-1.087,-2.082 -2.318,-4.906 -4.979,-7.65c-4.751,-4.898 -8.72,-10.152 -9.28,-12.493c-0.729,-3.049 -2.785,-5.437 -3.893,-6.608c-1.586,-1.677 -5.115,-3.35 -5.115,-3.35l0,-0.001Z" style="fill-rule:nonzero;"/><path d="M189.184,9.982c-0,0 -1.539,8.736 -3.622,14.033c-2.082,5.296 -4.345,7.785 -4.345,7.785c-0,0 -4.074,4.572 -5.885,10.185c-1.81,5.613 -6.028,8.438 -6.028,8.438c0,0 -23.017,1.826 -42.271,7.078c0,0 -5.215,1.114 -12.06,1.097c-0,-0 -1.776,-4.973 -7.479,-8.594c-0,-0 32.988,-18.758 47.786,-23.364c10.425,-3.245 33.904,-16.658 33.904,-16.658l-0,0Z" style="fill-rule:nonzero;"/><path d="M96.496,61.533c-0,0 8.855,-2.657 13.763,-2.08c10.182,1.197 23.41,-2.22 23.41,-2.22c-0,-0 7.756,-1.698 15.512,-3.061c5.538,-0.974 17.048,-2.751 27.175,-3.361c10.009,-0.603 20.132,-3.969 21.573,-4.097c-0,-0 -7.17,6.433 -14.211,9.731c-7.042,3.296 -17.701,10.658 -17.701,10.658c0,0 -14.947,11.203 -28.327,15.46c0,-0 -4.257,8.482 -14.051,14.948c-9.795,6.465 -16.964,5.793 -16.964,5.793c-0,0 -2.802,-5.737 -6.114,-9.698c-2.836,-3.392 -7.362,-4.609 -7.362,-4.609c0,-0 -4.289,-0.288 -6.785,-2.209c-2.649,-2.037 -1.92,-4.865 -1.92,-4.865c-0,0 0.768,-5.409 5.761,-12.451c4.993,-7.042 6.241,-7.938 6.241,-7.938l-0,-0.001Z" style="fill-rule:nonzero;"/><path d="M107.183,105.04c0,0 3.494,0.774 12.008,-3.067c8.514,-3.841 12.097,-8.591 12.097,-8.591c-0,-0 1.076,5.599 1.652,14.561c0.576,8.962 -0.448,16.9 -0.448,16.9c0,0 -1.792,13.124 -2.625,16.26c-0.832,3.137 -3.712,17.989 -3.712,17.989c-0,-0 -0.128,-2.881 -3.393,-7.138c-3.265,-4.257 -2.881,-7.522 -4.353,-10.595c-1.473,-3.072 -5.811,-14.915 -7.795,-21.669c-1.985,-6.754 -0.934,-8.824 -3.43,-14.65l-0.001,0Z" style="fill-rule:nonzero;"/><path d="M108.414,117.185c-0,-0 0.828,2.687 1.464,4.821c2.006,6.733 5.722,16.438 5.722,16.438l1.716,3.83l1.271,4.207c-0,-0 0.356,3.238 4.485,8.359c4.129,5.121 1.155,12.031 1.155,12.031c0,-0 -1.869,3.829 -3.145,11.712c-1.116,6.891 -1.11,11.392 -1.11,11.392c-0,-0 -4.245,0.629 -8.029,-2.9c-5.67,-3.412 -3.46,-4.478 -8.009,-6.505c-6.849,-2.944 -9.409,-10.946 -9.409,-10.946c-0,0 -0.513,-1.455 0.896,-6.128c1.408,-4.673 3.304,-8.277 3.304,-8.277c-0,-0 4.96,-14.605 5.568,-16.845c0.608,-2.241 0.536,-15.46 4.121,-21.19l-0,0.001Z" style="fill-rule:nonzero;"/></g></g></g></svg>